<svg viewBox="0 0 458 458" version="1.1" xmlns="http://www.w3.org/2000/svg" xmlns:xlink="http://www.w3.org/1999/xlink">
    <g id="Page-1" stroke="none" stroke-width="1" fill="none" fill-rule="evenodd" transform="translate(52, 52)">
        
        <g id="Artboard-8" transform="translate(-832.000000, -510.000000)">
            <g id="Group" transform="translate(781.000000, 458.000000)">
                <ellipse id="Oval-6" fill="#FBAE16" transform="translate(225.754885, 226.283205) scale(1, -1) rotate(45.000000) translate(-225.754885, -226.283205) " cx="225.754885" cy="226.283205" rx="229.067704" ry="90.1979166">
                    <animateTransform attributeName="transform"
                          attributeType="XML"
                          type="rotate"
                          from="-45 227.24707,228.734375"
                          to="-405 227.24707,228.734375"
                          dur="4s"
                          repeatCount="indefinite"/>
                </ellipse>
                <g>
                    <ellipse id="Oval-6" fill="#26B0E6" transform="translate(228.754885, 227.283205) rotate(45.000000) translate(-228.754885, -227.283205) " cx="228.754885" cy="227.283205" rx="229.067704" ry="90.1979166"></ellipse>
                    <path d="M66.7452393,65.4296875 L390.578613,389.336426 C344.117187,429.042969 236.989967,364.501591 162.981895,288.511968 C84.6807543,208.114331 26.0078125,110.136719 66.7452393,65.4296875 Z" id="Path-8" fill="#097CB9"></path>
                    <animateTransform attributeName="transform"
                          attributeType="XML"
                          type="rotate"
                          from="0 227.24707,228.734375"
                          to="360 227.24707,228.734375"
                          dur="4s"
                          
                          repeatCount="indefinite"/>
                </g>
                <g >
                    <path d="M108.178177,224.733795 C139.963181,180.913215 179.507605,142.290709 226.751953,107.759766 C281.11397,147.849315 319.769614,186.965288 345.708008,225.292969 C311.909783,272.041726 272.560635,311.816644 226.962891,343.741211 C180.364801,311.558285 141.806212,270.410721 108.178177,224.733795 Z" id="Path-7" fill="#ED234D"></path>
                    <path d="M161.518555,163.070801 L227.267212,228.709595 L345.493164,225.020508 C316.039717,179.928141 271.306084,142.747278 226.574707,106.995911 C204.981934,120.046387 174.971191,148.729492 161.518555,163.070801 Z" id="Path-5" fill="#652D88"></path>
                    <path d="M226.47168,344.377441 C177.005071,308.054224 139.077765,266.903492 108.173553,224.730713 L227.24707,228.734375 L290.558838,290.293152 C269.787131,310.980748 248.107496,328.624243 226.47168,344.377441 Z" id="Path-6" fill="#652D88"></path>
                    <animateTransform attributeName="transform"
                          attributeType="XML"
                          type="rotate"
                          from="0 227.24707,228.734375"
                          to="360 227.24707,228.734375"
                          dur="2s"
                          repeatCount="indefinite"/>
                </g>
                <animate attributeName="display" values="block; none;" repeatCount="indefinite" dur="8s" />
            </g>

                
            <g transform="translate(781.000000, 458.000000)">
                <g style="transform-origin: 50% 50%;">
                    <ellipse  fill="#FBAE16" transform="translate(225.754885, 226.283205) scale(1, -1) rotate(45.000000) translate(-225.754885, -226.283205) " cx="225.754885" cy="226.283205" rx="229.067704" ry="90.1979166">
            
                    </ellipse>
                    <g>
                        <ellipse fill="#26B0E6" transform="translate(228.754885, 227.283205) rotate(45.000000) translate(-228.754885, -227.283205) " cx="228.754885" cy="227.283205" rx="229.067704" ry="90.1979166"></ellipse>
                        <path d="M66.7452393,65.4296875 L390.578613,389.336426 C344.117187,429.042969 236.989967,364.501591 162.981895,288.511968 C84.6807543,208.114331 26.0078125,110.136719 66.7452393,65.4296875 Z" fill="#097CB9"></path>
                        
                    </g>
                    <g>
                        <path d="M108.178177,224.733795 C139.963181,180.913215 179.507605,142.290709 226.751953,107.759766 C281.11397,147.849315 319.769614,186.965288 345.708008,225.292969 C311.909783,272.041726 272.560635,311.816644 226.962891,343.741211 C180.364801,311.558285 141.806212,270.410721 108.178177,224.733795 Z" fill="#ED234D"></path>
                        <path d="M161.518555,163.070801 L227.267212,228.709595 L345.493164,225.020508 C316.039717,179.928141 271.306084,142.747278 226.574707,106.995911 C204.981934,120.046387 174.971191,148.729492 161.518555,163.070801 Z" fill="#652D88"></path>
                        <path d="M226.47168,344.377441 C177.005071,308.054224 139.077765,266.903492 108.173553,224.730713 L227.24707,228.734375 L290.558838,290.293152 C269.787131,310.980748 248.107496,328.624243 226.47168,344.377441 Z" fill="#652D88"></path>
                        
                    </g>
                    <animateTransform attributeName="transform"
                        type="scale"
                        from="1.1 1.1"
                        to=".9 .9"
                        repeatCount="indefinite"
                        begin="1s"
                        dur="2s" />
                </g>
                <animate attributeName="display" values="none; block;" repeatCount="indefinite" dur="8s" />
            </g>
        </g>
    </g>       
    
</svg>
